<?xml version="1.0" standalone="no"?>
<!DOCTYPE svg PUBLIC "-//W3C//DTD SVG 20010904//EN"
 "http://www.w3.org/TR/2001/REC-SVG-20010904/DTD/svg10.dtd">
<svg version="1.0" xmlns="http://www.w3.org/2000/svg"
 width="512.000000pt" height="512.000000pt" viewBox="0 0 512.000000 512.000000"
 preserveAspectRatio="xMidYMid meet">

<g transform="translate(0.000000,512.000000) scale(0.100000,-0.100000)"
fill="#000000" stroke="none">
<path d="M2290 5074 c-401 -47 -739 -161 -1068 -361 -645 -391 -1079 -1044
-1193 -1795 -75 -499 6 -1008 236 -1473 257 -521 659 -918 1190 -1175 399
-193 919 -285 1345 -236 525 61 929 219 1325 519 104 80 316 286 417 407 224
267 395 602 484 945 69 267 112 678 86 810 -6 28 -20 122 -32 210 -26 193 -62
336 -128 512 -231 611 -663 1087 -1252 1383 -422 212 -955 308 -1410 254z
m550 -320 c206 -27 465 -103 648 -189 265 -126 570 -367 755 -595 77 -95 214
-304 259 -395 93 -185 164 -409 205 -641 22 -125 25 -536 5 -659 -19 -114 -77
-351 -108 -437 -37 -103 -133 -297 -199 -403 -97 -154 -154 -225 -314 -387
l-154 -157 6 -67 c4 -37 5 -65 3 -63 -2 2 -16 48 -30 102 -32 122 -60 188
-105 246 l-34 45 39 31 c77 61 137 121 175 176 29 43 48 60 83 73 54 21 91 62
106 116 13 48 5 86 -27 124 -13 16 -21 35 -18 44 21 56 37 174 31 242 -23 273
-24 281 -65 366 -50 105 -115 203 -186 282 -49 53 -73 70 -164 113 -168 80
-202 90 -332 96 -183 9 -357 -26 -504 -99 -89 -45 -238 -202 -349 -367 -31
-46 -36 -61 -36 -113 0 -42 -11 -95 -36 -174 -45 -139 -42 -172 21 -271 25
-37 45 -73 45 -79 0 -6 -11 -21 -25 -34 -75 -71 -50 -206 45 -244 59 -24 84
-22 76 7 -18 64 -15 66 14 11 66 -128 168 -230 295 -294 79 -40 228 -79 333
-87 45 -3 82 -9 82 -13 0 -21 -238 15 -373 56 -103 32 -91 40 -162 -101 -54
-108 -81 -208 -96 -358 -14 -141 -23 -157 -38 -76 -15 76 -113 465 -134 529
-9 25 -48 155 -87 290 -40 135 -77 250 -82 257 -5 6 -57 23 -116 37 -59 14
-134 34 -166 46 -33 11 -61 20 -63 20 -12 0 4 -31 51 -98 79 -113 168 -281
220 -414 25 -64 46 -123 46 -131 0 -9 -38 -51 -85 -95 -47 -43 -85 -86 -85
-94 0 -8 43 -53 95 -102 64 -59 95 -94 95 -109 0 -20 -2 -19 -15 6 -8 15 -29
40 -47 55 -64 52 -158 145 -158 156 0 6 35 42 78 80 110 98 110 97 68 203 -18
49 -52 127 -75 174 -48 102 -194 346 -222 372 -14 14 -19 29 -17 55 3 33 8 38
68 68 36 19 76 47 90 63 14 16 34 40 46 54 14 17 46 33 95 47 41 12 78 25 82
29 4 4 -11 30 -33 58 -22 28 -40 60 -40 71 0 23 11 28 92 37 32 3 60 10 63 14
2 5 -9 43 -25 85 -17 43 -30 81 -30 85 0 5 14 11 31 15 44 8 219 92 219 104 0
6 -35 29 -77 52 -77 41 -163 104 -163 119 0 4 26 15 58 25 98 31 188 73 273
128 l83 52 -60 27 c-32 15 -101 44 -152 65 -51 20 -92 42 -90 48 2 7 63 68
136 136 72 69 132 130 132 137 0 6 -19 14 -42 17 -315 42 -313 41 -312 62 0
10 46 97 103 192 57 95 101 175 98 178 -2 3 -71 -20 -153 -49 -192 -70 -210
-74 -218 -49 -20 62 -36 205 -36 320 l0 132 -52 -26 c-104 -52 -194 -118 -271
-196 -42 -43 -82 -76 -87 -73 -6 4 -36 43 -68 88 -55 79 -197 237 -212 237 -4
0 -11 -30 -15 -67 -10 -95 -30 -190 -60 -274 -14 -40 -27 -74 -30 -77 -2 -3
-42 13 -88 36 -99 48 -277 99 -277 78 0 -2 13 -31 30 -64 39 -78 82 -231 78
-274 l-3 -33 -100 -7 c-137 -9 -349 -29 -356 -34 -3 -2 39 -50 95 -106 95 -97
166 -199 166 -241 0 -8 -70 -63 -155 -122 -85 -59 -155 -111 -155 -116 0 -9
64 -29 94 -29 41 0 152 -65 209 -121 l57 -58 -112 -111 c-106 -105 -110 -111
-91 -125 11 -7 33 -17 49 -20 71 -16 190 -59 201 -72 8 -11 5 -38 -18 -121
-16 -59 -27 -113 -24 -121 4 -11 22 -12 88 -7 45 4 89 9 97 11 29 9 39 -11 46
-93 4 -45 10 -82 14 -82 4 0 33 11 65 25 56 25 57 26 41 48 -43 60 -88 151
-115 232 -38 117 -71 280 -70 347 l2 53 8 -70 c31 -240 144 -532 233 -600 18
-13 67 -41 109 -60 71 -33 77 -38 77 -65 0 -34 -23 -53 -85 -69 -98 -26 -351
-114 -357 -124 -11 -18 -46 -136 -84 -282 -40 -158 -111 -396 -120 -404 -4 -3
-4 13 0 37 6 44 6 44 -77 135 -122 134 -257 328 -332 478 -204 404 -280 902
-205 1345 51 305 151 568 307 807 189 291 374 479 663 670 159 105 295 172
461 227 223 74 354 100 619 124 74 6 277 -4 400 -20z m-1227 -1604 c89 -34
137 -103 137 -199 0 -54 -21 -87 -49 -76 -34 14 -211 18 -272 6 -45 -9 -64
-10 -73 -1 -6 6 -11 43 -11 84 0 63 4 78 27 112 38 54 103 91 165 93 12 1 46
-8 76 -19z m539 -99 c31 -12 71 -35 87 -50 26 -25 29 -33 24 -67 -9 -64 -17
-68 -114 -50 -46 9 -131 19 -189 24 l-105 7 -3 44 c-4 56 13 97 47 110 42 17
188 6 253 -18z m1091 -963 c46 -61 60 -99 60 -165 0 -159 -127 -273 -290 -261
-79 6 -132 30 -185 83 -49 49 -72 100 -72 160 l-1 50 101 7 c103 7 218 30 264
53 32 17 66 54 75 83 9 30 20 28 48 -10z m277 8 c0 -7 14 -28 32 -45 44 -43
136 -69 291 -83 l127 -12 0 -41 c0 -49 -37 -130 -76 -167 -41 -38 -117 -69
-183 -75 -104 -9 -226 58 -270 150 -28 58 -28 144 0 200 34 67 79 109 79 73z
m-1998 -558 c-28 -63 -60 -146 -71 -184 -12 -38 -35 -104 -52 -147 -16 -43
-27 -86 -24 -96 3 -9 46 -52 95 -94 50 -43 90 -82 90 -87 0 -12 -52 -72 -57
-66 -3 3 4 17 16 32 11 14 17 32 13 38 -4 7 -36 38 -72 70 -86 77 -100 94
-100 120 0 47 194 546 207 533 2 -3 -18 -56 -45 -119z m110 -163 l-9 -160 -2
146 c0 81 2 162 6 180 12 57 14 5 5 -166z m457 -74 c11 -130 13 -226 6 -206
-5 11 -36 380 -34 398 3 33 18 -74 28 -192z"/>
</g>
</svg>
