<?xml version="1.0" standalone="no"?>
<!DOCTYPE svg PUBLIC "-//W3C//DTD SVG 20010904//EN"
 "http://www.w3.org/TR/2001/REC-SVG-20010904/DTD/svg10.dtd">
<svg version="1.0" xmlns="http://www.w3.org/2000/svg"
 width="528.000000pt" height="528.000000pt" viewBox="0 0 528.000000 528.000000"
 preserveAspectRatio="xMidYMid meet">
<metadata>
Created by potrace 1.14, written by Peter Selinger 2001-2017
</metadata>
<g transform="translate(0.000000,528.000000) scale(0.100000,-0.100000)"
fill="#000000" stroke="none">
<path d="M2456 5243 c-2 -2 -28 -5 -58 -7 -322 -22 -672 -127 -1005 -301 -101
-53 -285 -165 -303 -185 -3 -3 -32 -25 -65 -50 -33 -24 -65 -49 -71 -55 -6 -5
-28 -24 -50 -42 -96 -78 -277 -271 -364 -388 -25 -33 -47 -62 -50 -65 -16 -14
-200 -314 -200 -324 0 -2 -21 -48 -46 -102 -64 -135 -143 -356 -160 -444 -2
-14 -7 -32 -10 -40 -5 -13 -18 -77 -29 -135 -13 -71 -28 -179 -32 -235 -12
-152 -5 -491 12 -581 3 -13 8 -44 11 -69 13 -99 24 -146 65 -290 71 -248 191
-512 334 -730 298 -456 769 -827 1295 -1018 88 -32 274 -87 323 -96 15 -3 35
-7 45 -10 9 -3 33 -8 52 -10 19 -3 69 -10 110 -16 131 -19 211 -24 375 -24
223 0 400 19 572 59 37 9 75 18 83 20 78 16 232 66 357 115 92 37 267 122 271
133 2 4 9 7 15 7 10 0 202 119 237 147 8 6 51 40 95 74 469 369 788 857 929
1424 25 101 30 124 40 205 3 25 8 56 11 70 3 14 8 52 10 85 3 33 8 76 11 95 8
45 8 311 0 370 -3 25 -9 65 -11 90 -3 25 -8 52 -10 60 -2 8 -6 38 -10 65 -23
196 -63 340 -157 570 -131 322 -312 597 -548 836 -294 297 -609 498 -1020 650
-54 20 -199 61 -280 79 -134 30 -173 36 -345 56 -52 6 -423 12 -429 7z m434
-334 c419 -47 821 -217 1155 -486 433 -350 721 -847 811 -1400 22 -135 27
-495 9 -633 -69 -528 -317 -1011 -701 -1367 l-106 -98 5 -75 6 -75 -33 120
c-42 150 -40 146 -95 229 l-45 70 39 30 c78 61 138 122 182 184 26 36 52 62
62 62 34 0 102 60 123 107 24 55 18 103 -18 146 -14 17 -23 36 -20 43 3 8 13
55 23 104 15 79 15 104 5 203 -7 61 -15 141 -18 177 -8 106 -97 273 -226 425
-48 57 -67 70 -193 134 -180 91 -240 105 -425 98 -148 -6 -241 -26 -365 -78
-136 -56 -265 -180 -409 -392 -43 -64 -46 -72 -46 -134 0 -47 -9 -90 -32 -157
-42 -123 -43 -193 -4 -261 16 -27 38 -66 50 -86 l20 -37 -31 -36 c-80 -90 -40
-225 75 -256 55 -14 64 -7 46 35 -25 61 -14 62 17 0 123 -239 361 -383 662
-402 114 -7 122 -17 11 -14 -95 2 -259 35 -341 67 -35 14 -67 23 -73 19 -16
-10 -99 -169 -120 -231 -21 -59 -44 -181 -55 -284 -14 -138 -27 -162 -40 -77
-14 90 -108 454 -180 702 -41 143 -85 294 -97 335 -11 41 -26 80 -32 86 -6 6
-54 21 -106 34 -52 12 -130 33 -173 47 -43 14 -80 23 -83 20 -3 -2 22 -42 55
-88 33 -46 87 -136 120 -199 64 -124 151 -336 151 -368 0 -12 -34 -52 -85
-100 -47 -43 -85 -86 -85 -94 0 -8 45 -56 100 -107 93 -87 116 -120 90 -136
-6 -4 -7 1 -3 10 4 12 -25 46 -106 122 -61 58 -111 111 -111 118 0 7 36 43 79
81 113 98 113 98 56 241 -81 202 -259 521 -300 537 -19 7 -20 80 -2 93 6 5 34
18 61 28 31 11 66 35 93 64 23 25 51 55 62 65 10 11 52 29 92 41 40 12 74 26
76 32 2 5 -15 32 -37 60 -43 54 -51 89 -22 97 9 2 45 8 80 11 34 4 64 10 67
14 2 4 -9 41 -25 82 -38 96 -38 105 4 113 42 8 216 92 216 105 0 5 -35 28 -77
51 -86 46 -163 105 -163 124 0 6 32 22 71 34 94 30 209 83 287 134 34 22 62
41 62 43 0 1 -72 33 -160 70 -136 57 -159 70 -148 82 11 14 61 62 218 210 36
34 62 64 59 68 -7 6 -215 41 -309 51 -30 4 -59 10 -63 14 -4 4 42 91 103 194
60 103 110 192 110 198 0 12 -6 10 -204 -63 -98 -36 -163 -56 -169 -50 -22 22
-39 136 -44 304 l-6 177 -76 -41 c-100 -53 -211 -139 -274 -211 -28 -32 -55
-58 -59 -58 -4 0 -46 51 -92 113 -78 104 -201 237 -209 226 -2 -2 -11 -58 -20
-124 -18 -129 -71 -305 -92 -305 -7 0 -43 15 -81 34 -84 42 -172 71 -242 81
l-52 7 40 -84 c43 -90 83 -231 78 -275 l-3 -28 -105 -7 c-179 -12 -370 -31
-370 -37 0 -3 46 -53 103 -111 104 -107 177 -219 165 -252 -4 -8 -76 -64 -162
-123 -86 -60 -156 -112 -156 -116 0 -9 19 -16 88 -29 94 -17 212 -89 262 -160
l20 -29 -112 -111 c-94 -94 -109 -113 -97 -124 8 -7 69 -30 136 -51 67 -21
124 -44 127 -52 3 -7 -8 -63 -24 -125 -16 -61 -27 -115 -23 -121 3 -6 41 -6
97 -2 93 8 126 9 132 3 2 -2 6 -41 10 -86 4 -46 10 -85 14 -87 9 -6 120 42
120 51 0 3 -13 24 -29 47 -40 59 -70 121 -97 201 -36 104 -74 299 -72 364 1
37 3 45 5 22 17 -161 74 -370 139 -506 54 -115 111 -167 247 -224 47 -19 48
-21 45 -57 l-3 -37 -222 -75 c-197 -66 -223 -77 -232 -100 -6 -14 -43 -138
-81 -276 -86 -303 -120 -415 -127 -415 -3 0 -2 19 1 42 6 42 4 45 -50 103
-298 317 -509 738 -578 1150 -23 140 -25 161 -32 310 -33 703 281 1393 836
1840 254 205 593 371 905 443 80 19 271 45 395 55 70 6 275 -2 380 -14z
m-1227 -1659 c91 -34 137 -102 137 -204 0 -59 -20 -92 -49 -81 -34 14 -221 18
-282 6 -45 -9 -64 -10 -73 -1 -6 6 -11 43 -11 84 0 64 4 78 29 114 40 58 109
99 173 101 12 1 46 -8 76 -19z m561 -108 c92 -43 117 -70 109 -119 -9 -63 -18
-67 -114 -48 -47 8 -134 19 -194 23 l-110 7 -3 56 c-2 44 1 61 18 81 25 33 44
37 147 33 67 -2 95 -9 147 -33z m1159 -1052 c26 -59 26 -161 0 -221 -56 -127
-213 -191 -354 -144 -80 27 -162 112 -179 186 -7 29 -10 65 -9 79 4 24 7 25
107 32 115 7 254 39 292 66 14 10 34 36 45 59 l20 41 29 -26 c16 -15 38 -47
49 -72z m247 75 c0 -8 14 -30 31 -50 51 -58 152 -81 422 -95 4 0 7 -21 7 -47
0 -57 -35 -136 -76 -175 -69 -65 -191 -92 -287 -64 -187 54 -258 260 -141 413
27 35 44 42 44 18z m-2055 -570 c-26 -59 -67 -164 -92 -233 -25 -70 -52 -144
-59 -164 -8 -21 -11 -44 -8 -53 4 -8 48 -51 100 -95 52 -45 94 -84 94 -89 0
-4 -16 -25 -36 -47 -20 -21 -29 -28 -20 -14 38 60 39 54 -26 117 -34 32 -77
72 -95 89 -18 18 -33 41 -33 53 0 24 96 286 160 436 48 114 50 118 57 112 2
-3 -17 -53 -42 -112z m107 -185 l-9 -165 -1 155 c-2 145 9 282 16 205 1 -16
-2 -104 -6 -195z m468 -20 c12 -101 22 -295 15 -270 -5 17 -46 409 -44 425 2
22 19 -65 29 -155z"/>
</g>
</svg>
